<svg xmlns="http://www.w3.org/2000/svg" viewBox="0 0 2056.39 1290.88"><defs><style>.cls-1{fill:#0087c4;}.cls-2{fill:#00afc8;}.cls-3{fill:#68bc96;}.cls-4{fill:#5abfce;}.cls-5{fill:#ec174b;}.cls-28,.cls-6{fill:#4462ac;}.cls-7,.cls-8{fill:#fff478;}.cls-8{font-size:54.05px;}.cls-10,.cls-11,.cls-8{font-family:InterV-Black, InterV Black;font-weight:800;}.cls-9{letter-spacing:-0.01em;}.cls-10{font-size:43.43px;}.cls-10,.cls-11,.cls-12,.cls-16,.cls-21{fill:#fff;}.cls-11{font-size:42.37px;}.cls-12,.cls-16{font-size:52.12px;}.cls-12,.cls-16,.cls-21,.cls-28{font-family:InterV-SemiBold, InterV SemiBold;font-weight:600;}.cls-13{letter-spacing:-0.01em;}.cls-14{letter-spacing:0.01em;}.cls-15{letter-spacing:-0.01em;}.cls-16,.cls-18{letter-spacing:0em;}.cls-17{letter-spacing:0em;}.cls-19{letter-spacing:-0.03em;}.cls-20{letter-spacing:-0.01em;}.cls-21,.cls-28{font-size:35.32px;}.cls-22{letter-spacing:-0.02em;}.cls-23{letter-spacing:-0.02em;}.cls-24{letter-spacing:-0.04em;}.cls-25{letter-spacing:0.02em;}.cls-26{letter-spacing:0.02em;}.cls-27{letter-spacing:-0.01em;}.cls-29{letter-spacing:0.01em;}.cls-30{letter-spacing:-0.01em;}.cls-31{letter-spacing:0.01em;}.cls-32{letter-spacing:-0.01em;}.cls-33{letter-spacing:-0.01em;}.cls-34{letter-spacing:0em;}.cls-35{letter-spacing:0em;}.cls-36{letter-spacing:-0.04em;}.cls-37{letter-spacing:-0.01em;}.cls-38{letter-spacing:0em;}.cls-39{letter-spacing:-0.01em;}.cls-40{letter-spacing:0em;}.cls-41{letter-spacing:-0.04em;}.cls-42{letter-spacing:-0.01em;}.cls-43{letter-spacing:0em;}.cls-44{letter-spacing:0em;}</style></defs><g id="Layer_2" data-name="Layer 2"><g id="Layer_1-2" data-name="Layer 1"><rect class="cls-1" width="301.88" height="122.1"/><rect class="cls-2" x="306.23" width="365.9" height="122.1"/><rect class="cls-2" x="680.81" width="354.63" height="122.1"/><rect class="cls-2" x="1045.37" width="340.29" height="122.1"/><rect class="cls-2" x="1394.05" width="338.97" height="122.1"/><rect class="cls-2" x="1741.71" width="314.68" height="122.1"/><rect class="cls-1" y="128.24" width="301.88" height="110.22"/><rect class="cls-3" x="306.23" y="128.24" width="1750.16" height="110.22"/><rect class="cls-1" y="245.09" width="301.88" height="110.22"/><rect class="cls-4" x="306.23" y="245.09" width="1750.16" height="110.22"/><rect class="cls-1" y="361.93" width="301.88" height="110.22"/><rect class="cls-4" x="306.23" y="361.93" width="365.9" height="110.22"/><rect class="cls-5" x="306.23" y="1061.41" width="365.9" height="110.22"/><rect class="cls-6" x="683.04" y="362.75" width="352.4" height="110.22"/><rect class="cls-6" x="683.04" y="1063.02" width="352.4" height="110.22"/><rect class="cls-4" x="1045.37" y="361.93" width="340.29" height="110.22"/><rect class="cls-5" x="1045.37" y="1061.41" width="340.29" height="110.22"/><rect class="cls-6" x="1394.05" y="361.93" width="338.97" height="110.22"/><rect class="cls-5" x="1394.05" y="1063.02" width="338.97" height="110.22"/><rect class="cls-4" x="1741.71" y="361.93" width="314.68" height="110.22"/><rect class="cls-6" x="1741.71" y="1061.41" width="314.68" height="110.22"/><rect class="cls-7" x="306.23" y="1179.06" width="365.9" height="110.22"/><rect class="cls-7" x="683.04" y="1180.66" width="352.4" height="110.22"/><rect class="cls-4" x="1045.37" y="1179.06" width="340.29" height="110.22"/><rect class="cls-7" x="1394.05" y="1180.66" width="338.97" height="110.22"/><rect class="cls-4" x="1741.71" y="1179.06" width="314.68" height="110.22"/><rect class="cls-1" y="478.78" width="301.88" height="110.22"/><rect class="cls-4" x="306.23" y="478.78" width="1750.16" height="110.22"/><rect class="cls-1" x="306.23" y="595.63" width="1750.16" height="110.22"/><rect class="cls-1" x="306.23" y="712.47" width="1750.16" height="110.22"/><rect class="cls-3" x="306.23" y="829.32" width="1750.16" height="110.22"/><rect class="cls-3" x="306.23" y="946.17" width="1750.16" height="110.22"/><rect class="cls-1" y="595.63" width="301.88" height="110.22"/><rect class="cls-1" y="712.47" width="301.88" height="110.22"/><rect class="cls-1" y="829.32" width="301.88" height="110.22"/><rect class="cls-1" y="946.17" width="301.88" height="110.22"/><rect class="cls-1" y="1179.86" width="301.88" height="110.22"/><rect class="cls-1" y="1063.02" width="301.88" height="110.22"/><text class="cls-8" transform="translate(411.64 86.31)"><tspan class="cls-9">T</tspan><tspan x="26.49" y="0">hứ 2</tspan></text><text class="cls-10" transform="translate(24.93 86.31)">THỜI GIAN</text><text class="cls-11" transform="translate(24.93 197.98)">7h30 – 8h </text><text class="cls-11" transform="translate(24.93 320.06)">8h-9h</text><text class="cls-11" transform="translate(24.93 435.57)">9h-10h</text><text class="cls-8" transform="translate(778.55 86.31)"><tspan class="cls-9">T</tspan><tspan x="26.49" y="0">hứ 3</tspan></text><text class="cls-8" transform="translate(1135.09 86.31)"><tspan class="cls-9">T</tspan><tspan x="26.49" y="0">hứ 4</tspan></text><text class="cls-8" transform="translate(1486.79 86.31)"><tspan class="cls-9">T</tspan><tspan x="26.49" y="0">hứ 5</tspan></text><text class="cls-8" transform="translate(1843.08 86.31)"><tspan class="cls-9">T</tspan><tspan x="26.49" y="0">hứ 6</tspan></text><text class="cls-12" transform="translate(1049.8 197.98)"><tspan class="cls-13">T</tspan><tspan x="25.54" y="0">hể dục sáng</tspan></text><text class="cls-12" transform="translate(844.13 898.64)"><tspan class="cls-14">K</tspan><tspan x="28.77" y="0" xml:space="preserve">hởi động chuẩn bị  ăn chiều</tspan></text><text class="cls-12" transform="translate(1076.95 320.06)">TIẾNG ANH</text><text class="cls-12" transform="translate(414.37 435.57)">Học <tspan class="cls-15" x="96.99" y="0">v</tspan><tspan x="121.53" y="0">ẽ </tspan></text><text class="cls-16" transform="translate(1790.55 1259.1)">Â<tspan class="cls-17" x="31.74" y="0">m nhạc</tspan></text><text class="cls-16" transform="translate(1109.28 1259.1)">Â<tspan class="cls-17" x="31.74" y="0">m nhạc</tspan></text><text class="cls-12" transform="translate(1135.08 1021.65)"><tspan class="cls-18">Ă</tspan><tspan x="31.74" y="0">n nhẹ</tspan></text><text class="cls-12" transform="translate(1495.63 1143.66)"><tspan class="cls-19">T</tspan><tspan class="cls-20" x="24.5" y="0">O</tspan><tspan x="59.67" y="0">ÁN </tspan></text><text class="cls-21" transform="translate(737.72 435.57)"><tspan class="cls-22">K</tspan><tspan x="18.58" y="0">ỹ năng sống </tspan></text><text class="cls-21" transform="translate(1460.32 435.57)"><tspan class="cls-23">K</tspan><tspan x="18.58" y="0">ỹ năng sống </tspan></text><text class="cls-12" transform="translate(347.9 1143.66)">TIẾNG<tspan class="cls-24" x="131.96" y="0"> </tspan><tspan x="141.13" y="0">VI</tspan><tspan class="cls-25" x="182.67" y="0">Ệ</tspan><tspan x="209.14" y="0">T </tspan></text><text class="cls-12" transform="translate(1076.95 1143.66)">TIẾNG<tspan class="cls-24" x="131.96" y="0"> </tspan><tspan x="141.13" y="0">VI</tspan><tspan class="cls-26" x="182.67" y="0">Ệ</tspan><tspan class="cls-17" x="209.14" y="0">T </tspan></text><text class="cls-12" transform="translate(1135.08 435.57)">Học <tspan class="cls-27" x="96.99" y="0">v</tspan><tspan x="121.53" y="0">ẽ </tspan></text><text class="cls-12" transform="translate(1125.99 669.55)"><tspan class="cls-18">Ă</tspan><tspan x="31.74" y="0">n trưa</tspan></text><text class="cls-12" transform="translate(1109.28 785.36)">Ngủ trưa</text><text class="cls-12" transform="translate(1149.09 551.07)">STEM</text><text class="cls-28" transform="translate(741.47 1249.1)"><tspan class="cls-29">N</tspan><tspan x="23.59" y="0">h</tspan><tspan class="cls-30" x="43.19" y="0">ả</tspan><tspan x="59.93" y="0">y hiện đại</tspan></text><text class="cls-28" transform="translate(1449.24 1249.1)"><tspan class="cls-31">N</tspan><tspan x="23.59" y="0">h</tspan><tspan class="cls-32" x="43.19" y="0">ả</tspan><tspan x="59.93" y="0">y hiện đại</tspan></text><text class="cls-28" transform="translate(365.27 1249.1)"><tspan class="cls-29">N</tspan><tspan x="23.59" y="0">h</tspan><tspan class="cls-30" x="43.19" y="0">ả</tspan><tspan x="59.93" y="0">y hiện đại</tspan></text><text class="cls-12" transform="translate(1817.06 435.57)">Học <tspan class="cls-27" x="96.99" y="0">v</tspan><tspan x="121.53" y="0">ẽ </tspan></text><text class="cls-21" transform="translate(730.61 1118.12)"><tspan class="cls-22">K</tspan><tspan x="18.58" y="0">ỹ năng thu</tspan><tspan class="cls-33" x="176.89" y="0">y</tspan><tspan class="cls-34" x="193.17" y="0">ết</tspan><tspan x="0" y="35.32">t</tspan><tspan class="cls-35" x="11.69" y="35.32">r</tspan><tspan x="23.38" y="35.32">ình</tspan><tspan class="cls-36" x="70.84" y="35.32"> </tspan><tspan class="cls-37" x="76.88" y="35.32">T</tspan><tspan x="94.01" y="35.32">iếng </tspan><tspan class="cls-38" x="166.79" y="35.32">A</tspan><tspan x="188.3" y="35.32">nh</tspan></text><text class="cls-21" transform="translate(1766.06 1118.12)"><tspan class="cls-23">K</tspan><tspan x="18.58" y="0">ỹ năng thu</tspan><tspan class="cls-39" x="176.89" y="0">y</tspan><tspan x="193.17" y="0">ết</tspan><tspan x="0" y="35.32">t</tspan><tspan class="cls-40" x="11.69" y="35.32">r</tspan><tspan x="23.38" y="35.32">ình</tspan><tspan class="cls-41" x="70.84" y="35.32"> </tspan><tspan class="cls-42" x="76.88" y="35.32">T</tspan><tspan x="94.01" y="35.32">iếng </tspan><tspan class="cls-43" x="166.79" y="35.32">A</tspan><tspan class="cls-44" x="188.3" y="35.32">nh</tspan></text><text class="cls-11" transform="translate(24.93 551.07)">10-11h</text><text class="cls-11" transform="translate(24.93 669.55)">11-12h</text><text class="cls-11" transform="translate(24.93 776.27)">12h- 14h</text><text class="cls-11" transform="translate(24.93 907.32)">14h-14h30</text><text class="cls-11" transform="translate(24.93 1017.58)">14h30-15h</text><text class="cls-11" transform="translate(24.93 1139.08)">15h-16h</text><text class="cls-11" transform="translate(24.93 1249.1)">16h-16h30</text></g></g></svg>