<?xml version="1.0" encoding="utf-8"?>
<!-- Generator: Adobe Illustrator 24.1.2, SVG Export Plug-In . SVG Version: 6.00 Build 0)  -->
<svg version="1.1" id="Layer_1" xmlns="http://www.w3.org/2000/svg" xmlns:xlink="http://www.w3.org/1999/xlink" x="0px" y="0px"
	 viewBox="0 0 1000 1000" enable-background="new 0 0 1000 1000" xml:space="preserve">
<g>
	<linearGradient id="SVGID_1_" gradientUnits="userSpaceOnUse" x1="3.2812" y1="518.0184" x2="959.243" y2="518.0184">
		<stop  offset="0" style="stop-color:#EF5673"/>
		<stop  offset="1" style="stop-color:#D01F42"/>
	</linearGradient>
	<path fill="url(#SVGID_1_)" d="M959.24,518.02C959.24,782,745.24,996,481.26,996S3.28,782,3.28,518.02
		c0-263.98,214-477.98,477.98-477.98v477.21L959.24,518.02z"/>
	
		<ellipse transform="matrix(0.7071 -0.7071 0.7071 0.7071 -225.3357 492.0276)" fill="#FFFFFF" cx="481.26" cy="518.02" rx="386.7" ry="386.7"/>
	<radialGradient id="SVGID_2_" cx="531.4451" cy="549.0965" r="283.3847" gradientUnits="userSpaceOnUse">
		<stop  offset="0" style="stop-color:#000000"/>
		<stop  offset="1" style="stop-color:#FFFFFF"/>
	</radialGradient>
	<circle fill="url(#SVGID_2_)" cx="531.45" cy="549.1" r="283.38"/>
	<linearGradient id="SVGID_3_" gradientUnits="userSpaceOnUse" x1="417.457" y1="189.0597" x2="902.1583" y2="673.761">
		<stop  offset="0" style="stop-color:#EF5673"/>
		<stop  offset="1" style="stop-color:#D01F42"/>
	</linearGradient>
	<path fill="url(#SVGID_3_)" d="M778.03,5.64c-91.07,8.07-165.9,79.67-178.34,170.24c-0.11,0.79-0.21,1.58-0.31,2.37
		c-5.61,44.71-44.68,77.43-89.49,72.66c-16.38-1.74-33.19-2.01-50.32-0.66c-130.39,10.28-236.02,115.97-246.11,246.38
		c-12.78,165.2,123.99,301.97,289.19,289.18C633.07,775.72,738.75,670.1,749.03,539.7c1.35-17.13,1.08-33.94-0.66-50.31
		c-4.77-44.81,27.95-83.88,72.66-89.49c0.78-0.1,1.57-0.2,2.35-0.31c90.57-12.43,162.17-87.26,170.25-178.32
		C1004.63,97.5,901.8-5.33,778.03,5.64z"/>
	<text transform="matrix(1 0 0 1 348.4023 661.0918)" fill="#FFFFFF" font-family="'OpenSans-Bold'" font-size="232.7496px">03</text>
	<text transform="matrix(1 0 0 1 365.6113 445.4688)" fill="#FFFFFF" font-family="'OpenSans-Bold'" font-size="115.1654px">STEP</text>
	<circle fill="#FFFFFF" cx="792.28" cy="203.35" r="138.98"/>
	<g>
		<g>
			<g>
				<g>
					<g>
						<g>
							<g>
								<linearGradient id="SVGID_4_" gradientUnits="userSpaceOnUse" x1="717.095" y1="200.791" x2="864.3483" y2="200.791">
									<stop  offset="0" style="stop-color:#EF5673"/>
									<stop  offset="1" style="stop-color:#D01F42"/>
								</linearGradient>
								<path fill="url(#SVGID_4_)" d="M864.35,214.1v-26.61h-16.97c-1.46-6.24-3.91-12.07-7.19-17.36l11.99-11.99l-18.82-18.82
									l-11.99,12c-5.29-3.28-11.12-5.73-17.36-7.19v-16.97H777.4v16.97c-6.22,1.46-12.07,3.91-17.34,7.19l-12.02-12l-18.82,18.82
									l12.02,11.99c-3.28,5.29-5.73,11.12-7.19,17.36h-16.97v26.61h16.97c1.46,6.21,3.91,12.07,7.19,17.33l-12.02,12.02
									l18.82,18.82l12.02-12c5.27,3.25,11.12,5.71,17.34,7.16v17h26.61v-17c6.24-1.46,12.07-3.91,17.36-7.16l11.99,12l18.82-18.82
									l-11.99-12.02c3.28-5.27,5.73-11.12,7.19-17.33H864.35z M790.71,231.89c-17.19,0-31.1-13.91-31.1-31.1
									c0-17.19,13.91-31.1,31.1-31.1c17.19,0,31.1,13.91,31.1,31.1C821.81,217.98,807.9,231.89,790.71,231.89z M790.71,212.19
									c-6.3,0-11.4-5.1-11.4-11.4c0-6.3,5.1-11.4,11.4-11.4s11.4,5.1,11.4,11.4C802.11,207.09,797.01,212.19,790.71,212.19z"/>
							</g>
						</g>
					</g>
				</g>
			</g>
		</g>
	</g>
</g>
</svg>
