<?xml version="1.0" encoding="utf-8"?>
<!-- Generator: Adobe Illustrator 24.1.2, SVG Export Plug-In . SVG Version: 6.00 Build 0)  -->
<svg version="1.1" id="Layer_1" xmlns="http://www.w3.org/2000/svg" xmlns:xlink="http://www.w3.org/1999/xlink" x="0px" y="0px"
	 viewBox="0 0 1000 1000" enable-background="new 0 0 1000 1000" xml:space="preserve">
<g>
	<linearGradient id="SVGID_1_" gradientUnits="userSpaceOnUse" x1="793.4373" y1="925.7195" x2="110.3716" y2="242.6537">
		<stop  offset="0" style="stop-color:#EF5673"/>
		<stop  offset="1" style="stop-color:#FDBB11"/>
	</linearGradient>
	<path fill="url(#SVGID_1_)" d="M958.92,516.23c0,263.06-213.26,476.32-476.32,476.32S6.28,779.3,6.28,516.23
		S219.54,39.91,482.6,39.91v475.55L958.92,516.23z"/>
	<circle fill="#FFFFFF" cx="482.6" cy="516.23" r="385.36"/>
	<radialGradient id="SVGID_2_" cx="532.6075" cy="547.2029" r="282.3992" gradientUnits="userSpaceOnUse">
		<stop  offset="0" style="stop-color:#000000"/>
		<stop  offset="1" style="stop-color:#FFFFFF"/>
	</radialGradient>
	<circle fill="url(#SVGID_2_)" cx="532.61" cy="547.2" r="282.4"/>
	<linearGradient id="SVGID_3_" gradientUnits="userSpaceOnUse" x1="974.8778" y1="744.2803" x2="291.8148" y2="61.2172">
		<stop  offset="0" style="stop-color:#EF5673"/>
		<stop  offset="1" style="stop-color:#FDBB11"/>
	</linearGradient>
	<path fill="url(#SVGID_3_)" d="M778.33,5.63c-90.75,8.04-165.33,79.39-177.72,169.65c-0.11,0.79-0.21,1.57-0.31,2.36
		c-5.59,44.55-44.53,77.16-89.17,72.41c-16.32-1.74-33.08-2-50.14-0.66c-129.94,10.25-235.19,115.57-245.25,245.52
		C203,659.55,339.29,795.84,503.92,783.1c129.95-10.06,235.27-115.32,245.52-245.25c1.34-17.07,1.08-33.82-0.66-50.14
		c-4.75-44.65,27.86-83.59,72.41-89.18c0.78-0.1,1.56-0.2,2.34-0.31c90.26-12.39,161.61-86.95,169.66-177.7
		C1004.14,97.18,901.67-5.3,778.33,5.63z"/>
	<text transform="matrix(1 0 0 1 350.2012 658.8066)" fill="#FFFFFF" font-family="'OpenSans-Bold'" font-size="231.9399px">02</text>
	<text transform="matrix(1 0 0 1 367.3496 443.9453)" fill="#FFFFFF" font-family="'OpenSans-Bold'" font-size="114.7647px">STEP</text>
	
		<ellipse transform="matrix(0.7071 -0.7071 0.7071 0.7071 88.8243 619.7647)" fill="#FFFFFF" cx="792.53" cy="202.66" rx="138.5" ry="138.5"/>
	<g>
		<g>
			<g>
				<linearGradient id="SVGID_4_" gradientUnits="userSpaceOnUse" x1="890.5844" y1="295.5765" x2="701.1472" y2="106.1393">
					<stop  offset="0" style="stop-color:#EF5673"/>
					<stop  offset="1" style="stop-color:#FDBB11"/>
				</linearGradient>
				<path fill="url(#SVGID_4_)" d="M794.65,198.26v-24.91c0-2.15-1.74-3.9-3.9-3.9s-3.9,1.75-3.9,3.9v21.88l-9.52,9.52
					c-1.52,1.52-1.52,3.99,0,5.51c1.52,1.52,3.99,1.52,5.51,0l11.7-11.7h0.1v-0.1l0.1-0.1L794.65,198.26z"/>
				<linearGradient id="SVGID_5_" gradientUnits="userSpaceOnUse" x1="890.4095" y1="295.7564" x2="700.9684" y2="106.3152">
					<stop  offset="0" style="stop-color:#EF5673"/>
					<stop  offset="1" style="stop-color:#FDBB11"/>
				</linearGradient>
				<path fill="url(#SVGID_5_)" d="M790.29,122.22c-40.54,0-73.41,32.87-73.41,73.41s32.87,73.41,73.41,73.41
					s73.41-32.87,73.41-73.41S830.83,122.22,790.29,122.22z M789.86,252.31c-31.3-0.23-56.49-25.8-56.25-57.1
					c0.23-31.3,25.8-56.49,57.1-56.25c31.3,0.24,56.49,25.8,56.25,57.11C846.73,227.36,821.16,252.55,789.86,252.31z"/>
			</g>
		</g>
	</g>
</g>
</svg>
