<svg xmlns="http://www.w3.org/2000/svg" viewBox="0 0 141.41 128.61"><g id="Layer_2" data-name="Layer 2"><g id="Layer_1-2" data-name="Layer 1"><path d="M72,43.28V30.22A7.25,7.25,0,0,0,64.74,23H29.44a7.24,7.24,0,0,0-7.23,7.24V43.28a7.24,7.24,0,0,0,7.23,7.24h35.3A7.25,7.25,0,0,0,72,43.28Zm-45.3,0V30.22a2.77,2.77,0,0,1,2.76-2.77h35.3a2.78,2.78,0,0,1,2.77,2.77V43.28a2.78,2.78,0,0,1-2.77,2.77H29.44A2.77,2.77,0,0,1,26.68,43.28Z"/><path d="M52.64,83.82H40.14a2.24,2.24,0,1,0,0,4.47h12.5a2.24,2.24,0,1,0,0-4.47Z"/><path d="M52.64,93.41H40.14a2.24,2.24,0,1,0,0,4.47h12.5a2.24,2.24,0,1,0,0-4.47Z"/><path d="M134.17,26.94H96.86a7.32,7.32,0,0,0-2.77.55V25.22a2.24,2.24,0,1,0-4.47,0V78.37a7.55,7.55,0,0,0-1.25.6,2.93,2.93,0,0,1-1.5.33c-2.8,0-7-2.09-11.26-5.6A7.5,7.5,0,0,0,70.87,72a7.37,7.37,0,0,0-3,.63,12.74,12.74,0,0,0-4.7-3,36.71,36.71,0,1,0-32.19,0,12.82,12.82,0,0,0-3.27,1.73A7.5,7.5,0,0,0,25.3,71a7.28,7.28,0,0,0-2.21.34C8.63,75.83,0,84.39,0,94.23a7.45,7.45,0,1,0,14.89,0c0-1.78,2.76-4.47,7.58-6.73v33.88a7.24,7.24,0,0,0,7.24,7.23h3.61a7.24,7.24,0,0,0,7.24-7.23v-8.61H53.62v8.61a7.24,7.24,0,0,0,7.24,7.23h3.61a7.24,7.24,0,0,0,7.24-7.23V89.22c5.26,3.27,10.43,5,15.2,5A20,20,0,0,0,89.62,94v32.37a2.24,2.24,0,0,0,4.47,0V92.74a17.38,17.38,0,0,0,2-1,7.45,7.45,0,0,0-2-13.58V59.83a7.13,7.13,0,0,0,2.77.55h7.5a2.24,2.24,0,1,0,0-4.47h-7.5a2.77,2.77,0,0,1-2.77-2.76v-19a2.77,2.77,0,0,1,2.77-2.77h37.31a2.77,2.77,0,0,1,2.77,2.77v19a2.77,2.77,0,0,1-2.77,2.76H111.66a2.24,2.24,0,0,0,0,4.47h22.51a7.24,7.24,0,0,0,7.24-7.23v-19A7.25,7.25,0,0,0,134.17,26.94ZM14.86,36.7A32.23,32.23,0,1,1,47.09,68.92,32.27,32.27,0,0,1,14.86,36.7ZM26.19,81.29h0l-1.08.34-.09,0c-9,3-14.58,7.8-14.58,12.55a3,3,0,1,1-5.95,0c0-7.78,7.46-14.74,20-18.62a3,3,0,0,1,.88-.14,2.93,2.93,0,0,1,1.5.41l.08.05a3,3,0,0,1,.86.8h0a2.39,2.39,0,0,1,.13.21l.05.08a1.3,1.3,0,0,1,.08.17.36.36,0,0,1,0,.09c0,.09.07.18.1.27a2.8,2.8,0,0,1,.14.89c0,.11,0,.22,0,.33a3,3,0,0,1-1.52,2.27A2.7,2.7,0,0,1,26.19,81.29Zm9.9,40.09a2.77,2.77,0,0,1-2.77,2.76H29.71a2.77,2.77,0,0,1-2.77-2.76v-8.61h9.15Zm31.15,0a2.77,2.77,0,0,1-2.77,2.76H60.86a2.77,2.77,0,0,1-2.77-2.76v-8.61h9.15Zm0-13.08H26.94V85.74l.57-.18a7.39,7.39,0,0,0,3.12-1.91,7.49,7.49,0,0,0,2.12-5.2,7.37,7.37,0,0,0-.34-2.21h0c-.06-.18-.12-.35-.19-.53s-.08-.19-.12-.28a2,2,0,0,0-.1-.21c-.06-.13-.13-.26-.19-.38a.56.56,0,0,0,0-.08,4,4,0,0,0-.27-.44,8.38,8.38,0,0,1,3.82-.92H58.87a8.3,8.3,0,0,1,5.64,2.19h0l-.26.46a.47.47,0,0,1,0,.1c-.07.16-.15.31-.21.47l0,.07c-.06.15-.11.31-.16.46l0,.08c0,.16-.1.33-.14.5l0,.1c0,.17-.07.34-.1.52v0c0,.17,0,.33-.06.5V79a4.51,4.51,0,0,0,0,.52v.11a4.89,4.89,0,0,0,0,.54,7.39,7.39,0,0,0,2.67,5l1,.8.11.09V108.3ZM94.78,83.79a3,3,0,0,1-1,4.09,13,13,0,0,1-6.87,1.85c-5,0-10.66-2.36-16.48-6.84L70,82.6c-.35-.28-.71-.56-1.06-.86a2.93,2.93,0,0,1-1.07-2,2.83,2.83,0,0,1,0-.29h0a2.92,2.92,0,0,1,.68-1.88l.15-.17.18-.16,0,0a3,3,0,0,1,3.83,0c5.18,4.27,10.19,6.62,14.11,6.62a7.26,7.26,0,0,0,3.82-1,3,3,0,0,1,1.09-.39h.08a1.84,1.84,0,0,0,.41,0A3,3,0,0,1,94.78,83.79Z"/></g></g></svg>